<svg width="152" height="152" viewBox="0 0 152 152" fill="none" xmlns="http://www.w3.org/2000/svg">
<g clip-path="url(#clip0_89_112)">
<path d="M38.3669 21.823C38.3646 22.7079 38.1652 23.5812 37.7834 24.3792C37.4016 25.1773 36.8469 25.8799 36.1597 26.4361C34.876 27.4599 33.2432 27.9396 31.6107 27.7727C29.9783 27.6057 28.4759 26.8052 27.4252 25.5426C26.3746 24.2799 25.859 22.6554 25.989 21.0168C26.1189 19.3782 26.8841 17.8556 28.1206 16.775C28.782 16.2045 29.5611 15.7876 30.4021 15.5541C31.2432 15.3205 32.1254 15.2761 32.9856 15.424L32.6895 17.0122C32.0624 16.9204 31.4229 16.961 30.8123 17.1312C30.2017 17.3014 29.6333 17.5976 29.1436 18.0007C27.17 19.6483 26.9825 22.515 28.6535 24.5249C29.0299 25.0028 29.4979 25.4003 30.0301 25.694C30.5623 25.9876 31.1478 26.1715 31.7521 26.2348C32.3564 26.2981 32.9673 26.2394 33.5486 26.0623C34.1299 25.8852 34.67 25.5933 35.1368 25.2037C35.6359 24.793 36.0386 24.2771 36.316 23.6928C36.5934 23.1085 36.7389 22.4701 36.7419 21.823H38.3669Z" fill="#B2B2B2"/>
<path d="M55.5142 15.3878L53.6656 16.1654L48.9751 13.157L47.5343 13.7634L49.3072 17.9974L47.7679 18.6564L43.0312 7.35445L47.3732 5.52906C49.7448 4.54055 51.4552 5.89481 52.1986 7.66754C52.8992 9.34142 52.7446 11.3151 50.7052 12.386L55.5142 15.3878ZM45.1693 8.11892L46.962 12.33L49.6493 11.1998C51.0243 10.6232 51.0901 9.35788 50.6361 8.31005C50.1822 7.26223 49.2415 6.40549 47.929 6.95576L45.1693 8.11892Z" fill="#B2B2B2"/>
<path d="M70.9442 0L71.1252 1.53876L65.5662 2.19776L66.0399 6.06943L70.8916 5.4994L71.0726 7.03485L66.2208 7.60819L66.655 11.2855L72.3883 10.6067L72.5692 12.1455L65.1945 13.0154L63.7637 0.823759L70.9442 0Z" fill="#B2B2B2"/>
<path d="M84.4599 9.56876L82.7758 12.4453L81.0391 12.1553L87.644 0.827026L89.3939 1.12025L91.9563 13.9709L90.2393 13.6843L89.5814 10.4155L84.4599 9.56876ZM89.2624 8.85699L88.1571 3.14996L85.2658 8.18808L89.2624 8.85699Z" fill="#B2B2B2"/>
<path d="M112.196 8.97236L111.538 10.3892L108.173 8.8175L103.66 18.5115L102.147 17.8031L106.66 8.11232L103.295 6.53728L103.953 5.12048L112.196 8.97236Z" fill="#B2B2B2"/>
<path d="M128.409 20.8477L127.403 22.0206L123.159 18.3665L120.613 21.332L124.314 24.5249L123.304 25.698L119.604 22.505L117.192 25.3091L121.567 29.082L120.561 30.2549L114.933 25.4047L122.916 16.1127L128.409 20.8477Z" fill="#B2B2B2"/>
<path d="M127.143 37.7018L137.458 31.1117L140.01 35.1184C141.882 38.0576 140.724 41.2044 137.787 43.076C134.85 44.9476 131.563 44.651 129.692 41.7085L127.143 37.7018ZM130.994 40.8748C132.359 43.0199 134.728 43.0661 136.915 41.6789C139.103 40.2917 140.086 38.0906 138.718 35.9455L137.073 33.3358L129.363 38.2784L130.994 40.8748Z" fill="#B2B2B2"/>
<path d="M152.003 74.3888L150.444 74.5139L150.148 70.807L139.507 71.6638L139.372 69.9964L150.013 69.1397L149.714 65.4328L151.273 65.3076L152.003 74.3888Z" fill="#B2B2B2"/>
<path d="M150.247 92.3533C149.998 93.576 149.392 94.6971 148.506 95.5739C147.619 96.4506 146.492 97.0434 145.269 97.2769C144.045 97.5104 142.779 97.3739 141.633 96.885C140.487 96.396 139.512 95.5766 138.832 94.531C138.152 93.4853 137.798 92.2607 137.815 91.013C137.832 89.7652 138.219 88.5505 138.927 87.5236C139.634 86.4968 140.631 85.704 141.79 85.2462C142.949 84.7883 144.218 84.6861 145.435 84.9525C146.237 85.1198 146.998 85.4443 147.675 85.9073C148.351 86.3703 148.93 86.9627 149.377 87.6505C149.824 88.3383 150.131 89.1078 150.281 89.9149C150.43 90.7219 150.418 91.5506 150.247 92.3533ZM139.543 89.9973C138.991 92.518 140.579 94.8871 143.132 95.4506C145.685 96.014 148.132 94.528 148.688 92.0106C149.244 89.4931 147.628 87.1306 145.069 86.5704C142.51 86.0103 140.096 87.4963 139.547 89.9973H139.543Z" fill="#B2B2B2"/>
<path d="M121.182 123.92C121.058 123.046 121.129 122.156 121.39 121.313C121.652 120.47 122.096 119.696 122.692 119.046C123.811 117.837 125.358 117.116 127.002 117.039C128.646 116.961 130.254 117.532 131.481 118.63C132.708 119.729 133.456 121.265 133.564 122.91C133.672 124.555 133.131 126.176 132.057 127.426C131.487 128.086 130.779 128.611 129.983 128.966C129.187 129.32 128.323 129.494 127.452 129.475L127.511 127.861C128.145 127.859 128.772 127.724 129.35 127.465C129.929 127.206 130.448 126.829 130.873 126.358C132.587 124.434 132.353 121.577 130.406 119.834C129.964 119.416 129.442 119.092 128.873 118.879C128.303 118.667 127.697 118.571 127.09 118.597C126.483 118.623 125.887 118.771 125.338 119.031C124.789 119.292 124.298 119.66 123.893 120.114C123.46 120.593 123.137 121.161 122.948 121.779C122.758 122.397 122.707 123.049 122.798 123.689L121.182 123.92Z" fill="#B2B2B2"/>
<path d="M105.183 132.843L106.897 131.798L111.982 134.068L113.298 133.254L110.913 129.333L112.341 128.464L118.709 138.929L114.689 141.383C112.492 142.728 110.597 141.634 109.601 139.993C108.657 138.444 108.515 136.467 110.37 135.106L105.183 132.843ZM116.495 138.48L114.12 134.576L111.634 136.095C110.357 136.872 110.479 138.131 111.071 139.103C111.663 140.075 112.735 140.777 113.949 140.036L116.495 138.48Z" fill="#B2B2B2"/>
<path d="M92.1969 150.352L91.7923 148.857L97.19 147.387L96.1671 143.611L91.4535 144.893L91.0489 143.4L95.7592 142.115L94.7921 138.546L89.22 140.062L88.8154 138.569L95.9796 136.619L99.19 148.448L92.1969 150.352Z" fill="#B2B2B2"/>
<path d="M77.4142 142.886L78.6576 139.792L80.4173 139.825L75.5524 152.016L73.7762 151.987L69.3521 139.65L71.0921 139.68L72.2302 142.813L77.4142 142.886ZM72.7729 144.299L74.7038 149.779L76.8221 144.372L72.7729 144.299Z" fill="#B2B2B2"/>
<path d="M50.0933 147.598L50.5341 146.095L54.0931 147.146L57.116 136.892L58.7146 137.364L55.695 147.621L59.2573 148.672L58.8133 150.175L50.0933 147.598Z" fill="#B2B2B2"/>
<path d="M32.2881 138.273L33.1104 136.955L37.8471 139.944L39.9293 136.629L35.7946 134.022L36.6169 132.704L40.7516 135.311L42.7252 132.18L37.8405 129.1L38.6629 127.781L44.9487 131.736L38.4096 142.154L32.2881 138.273Z" fill="#B2B2B2"/>
</g>
<defs>
<clipPath id="clip0_89_112">
<rect width="152" height="152" fill="white"/>
</clipPath>
</defs>
</svg>
