<svg id="Capa_1" data-name="Capa 1" xmlns="http://www.w3.org/2000/svg" viewBox="0 0 380.39 60.42"><defs><style>.cls-1{fill:#fff;}</style></defs><path class="cls-1" d="M41.27,2.14h5.35l5.29,43.41H46.12l-4-32.63L28.6,40.76H23.44L9.77,12.92l-4,32.63H0L5.29,2.14h5.36L26,34Z"/><path class="cls-1" d="M57.83,30.75c0-9.33,7-15.25,15.38-15.25s15.43,5.92,15.43,15.25-7,15.43-15.43,15.43A15,15,0,0,1,57.83,30.75Zm25.08,0a9.37,9.37,0,0,0-9.7-9.64c-5.36,0-9.71,3.71-9.71,9.64a9.71,9.71,0,1,0,19.41,0Z"/><path class="cls-1" d="M102,.13V45.55H96.26V.13Z"/><path class="cls-1" d="M114.41,1.58a3.75,3.75,0,0,1,4,3.71,4,4,0,1,1-4-3.71Zm2.83,44h-5.67V16.13h5.67Z"/><path class="cls-1" d="M124,60.17a35.22,35.22,0,0,1-4.88-.82,10.86,10.86,0,0,1-3.75-1.58A2.92,2.92,0,0,1,114,55.38q0-3.21,10.21-7.5l2.52-1.07-1.89-.88c-2.86-1.34-4.28-2.88-4.28-4.6a3.77,3.77,0,0,1,1.54-3,19.15,19.15,0,0,1,5-2.59L128.9,35q-2.2-2-2.21-6.11a15,15,0,0,1,4.13-10,12.51,12.51,0,0,1,9.67-4.69,7.16,7.16,0,0,1,4.79,2l.37-.38q4.8-4.79,7.5-4.78a2.46,2.46,0,0,1,1.61.53,1.74,1.74,0,0,1,.66,1.42,1.75,1.75,0,0,1-.63,1.45,2.59,2.59,0,0,1-1.64.5,5.26,5.26,0,0,1-1.83-.44,5.48,5.48,0,0,0-1.88-.44c-.89,0-2,.69-3.41,2.08l-.44.44a8.17,8.17,0,0,1,1.89,5.8,14.55,14.55,0,0,1-4.19,10,12.67,12.67,0,0,1-9.61,4.6,7.37,7.37,0,0,1-4.41-1.63l-2,.75q-3.41,1.26-3.4,2.84a1.72,1.72,0,0,0,.79,1.41,16.81,16.81,0,0,0,2.8,1.55l9.2,4.16a29,29,0,0,1,6.58,3.74,4.68,4.68,0,0,1,1.86,3.56c0,2.31-1.41,4.07-4.22,5.26s-6.68,1.8-11.59,1.8C127.49,60.42,125.71,60.34,124,60.17Zm14.43-1.48q2.92-1.23,2.93-3.18A2.85,2.85,0,0,0,140,53.18a31.41,31.41,0,0,0-5.16-2.71s-1.29-.56-3.75-1.67-3.73-1.69-3.81-1.74l-2.84,1.26a14.05,14.05,0,0,0-4.31,2.87,5.17,5.17,0,0,0-1.74,3.69q0,2.52,3.12,3.78a21.92,21.92,0,0,0,8.1,1.26Q135.51,59.92,138.44,58.69ZM138,33.3a29.24,29.24,0,0,0,4.13-7.66A22.6,22.6,0,0,0,143.76,18q0-3.29-2.89-3.28-2.2,0-4.7,3.24a29.47,29.47,0,0,0-4.12,7.6,21.81,21.81,0,0,0-1.64,7.56c0,2.31,1,3.46,3,3.46Q135.52,36.54,138,33.3Z"/><path class="cls-1" d="M154.35,45.49q-.89-.06-1.26-.06t-1.26.06c-.59,0-1,.06-1.33.06L159.2,23A27.75,27.75,0,0,0,161,17.39c0-.76-.34-1.14-1-1.14-1.31,0-3.57,2.21-6.81,6.62l-.37-.25q6-8.45,9.76-8.44a3.22,3.22,0,0,1,2.43.88,3.16,3.16,0,0,1,.85,2.27,20.77,20.77,0,0,1-1.7,6.36l-7.38,18.9,8-14.11c1.21-2.19,2.17-3.85,2.86-5s1.64-2.56,2.84-4.28a17.72,17.72,0,0,1,3.34-3.81,4.79,4.79,0,0,1,2.93-1.23,2,2,0,0,1,2.08,2c0,1.14-1,2-2.9,2.65a15.06,15.06,0,0,0-5.64,3.21,26.25,26.25,0,0,0-5.07,6.74l-9.58,16.76Q155.24,45.55,154.35,45.49Z"/><path class="cls-1" d="M191.23,45.17a3.14,3.14,0,0,1-.85-2.26c0-.89.66-3,2-6.37l5.73-15.24L187.61,37.42A40.09,40.09,0,0,1,182.54,44a6.39,6.39,0,0,1-4.38,2.11A4.12,4.12,0,0,1,175.29,45a4.37,4.37,0,0,1-1.16-3.34,24.15,24.15,0,0,1,1.54-7.28,61.91,61.91,0,0,1,3.94-9.11,30,30,0,0,1,5.86-7.81q3.47-3.27,6.8-3.27,3.91,0,6.87,4.72a14.11,14.11,0,0,0,4.1-1.86,8.36,8.36,0,0,0,2.45-2.93l.32.13-8.82,22.93a41.82,41.82,0,0,0-2,5.67q0,1.14,1.08,1.14,1.89,0,6.74-6.62l.38.25q-6.18,8.45-9.77,8.45A3.22,3.22,0,0,1,191.23,45.17Zm-4.12-7.93,11.65-18a11.83,11.83,0,0,0-2.52-3A4.56,4.56,0,0,0,193.35,15c-2,0-4.09,1.85-6.34,5.57a55.89,55.89,0,0,0-5.38,11.88q-2,6.3-2,9.38c0,1.43.42,2.15,1.26,2.15Q182.82,44,187.11,37.24Z"/><path class="cls-1" d="M208.46,59.79q-.94,0-2.52-.09c-1.05-.07-2-.1-2.83-.1s-1.68,0-2.77.1-1.92.09-2.46.09h-1.32v-.44h1.07a4,4,0,0,0,2.49-.76A6.22,6.22,0,0,0,201.85,56L217.6,16.7a27.22,27.22,0,0,0-7.81,5.6l-.32-.31A31.37,31.37,0,0,1,218,15.75l2.45-6.17q.45,0,1.2.06t1.14.06c.25,0,.62,0,1.13-.06s.9-.06,1.2-.06l-2.08,5a7.39,7.39,0,0,1,1-.07,9.09,9.09,0,0,1,6.67,2.56,8.59,8.59,0,0,1,2.59,6.39,16.49,16.49,0,0,1-3.63,9.83A32.7,32.7,0,0,1,221,41.52,32.55,32.55,0,0,1,210.92,46l-4,9.89a5.85,5.85,0,0,0-.5,1.89c0,1.06.9,1.58,2.71,1.58h2.52v.44Zm18.43-42a5.07,5.07,0,0,0-4.25-2.15L211.17,45.43a24.72,24.72,0,0,0,12.07-8.6,21.53,21.53,0,0,0,5.13-13.58A9.21,9.21,0,0,0,226.89,17.77Z"/><path class="cls-1" d="M251.14,45.17a3.14,3.14,0,0,1-.85-2.26c0-1.35.7-3.45,2.08-6.3l6.18-12.67q2.46-5.1,2.46-6.36c0-.88-.38-1.33-1.14-1.33-.54,0-1.35.57-2.42,1.71a67.85,67.85,0,0,0-5,6.49l-15,21.1q-.44,0-1.32-.06t-1.26-.06q-.37,0-1.23.06t-1.29.06L248,6.43a6.45,6.45,0,0,0,.56-2c0-.92-.77-1.38-2.33-1.38h-1.95V2.65H246c1.47,0,2.67,0,3.59-.1a12.59,12.59,0,0,0,3.21-.72A5.09,5.09,0,0,0,255.4,0l.31.13L238.32,43.41l13.74-19.34a66.8,66.8,0,0,1,6.21-7.82,6.29,6.29,0,0,1,4.44-2.07,3,3,0,0,1,2.3.91,3.19,3.19,0,0,1,.85,2.24q0,2.21-2.21,6.86l-6.36,13q-2.15,4.41-2.14,5.67c0,.76.35,1.14,1.07,1.14q1.89,0,6.74-6.62l.38.25q-6.12,8.45-9.77,8.45A3.22,3.22,0,0,1,251.14,45.17Z"/><path class="cls-1" d="M274.23,37.17c-1.38,3-2.08,4.87-2.08,5.67s.36,1.14,1.08,1.14q1.89,0,6.8-6.62l.38.25q-6.12,8.45-9.83,8.45a3.07,3.07,0,0,1-2.36-.92,3.14,3.14,0,0,1-.85-2.23q0-2,2-6.37l6.56-13.48Q278,18.91,278,17.39c0-.76-.35-1.14-1.07-1.14q-1.83,0-6.74,6.62l-.38-.25q6-8.45,9.77-8.44a3.06,3.06,0,0,1,2.36.91,3.14,3.14,0,0,1,.85,2.24q0,2-2,6.36Zm7.85-29.45a3.13,3.13,0,0,1-.92-2.3,3.23,3.23,0,0,1,.92-2.33,3.06,3.06,0,0,1,2.3-.95,3.23,3.23,0,0,1,3.27,3.28,3.07,3.07,0,0,1-.94,2.3,3.22,3.22,0,0,1-2.33.91A3.1,3.1,0,0,1,282.08,7.72Z"/><path class="cls-1" d="M286.64,43.79a9,9,0,0,1-1.89-5.92,24.77,24.77,0,0,1,2.59-10.49A28.3,28.3,0,0,1,294.27,18q4.35-3.84,8.82-3.84a5.91,5.91,0,0,1,4.38,2,6.87,6.87,0,0,1,1.92,4.92,6.1,6.1,0,0,1-.66,3.08,2,2,0,0,1-1.8,1.14,1.8,1.8,0,0,1-1.35-.54,1.89,1.89,0,0,1-.54-1.41,7.43,7.43,0,0,1,.73-2.49,8.08,8.08,0,0,0,.72-3,3.26,3.26,0,0,0-.88-2.36,3.18,3.18,0,0,0-2.4-.91q-3.07,0-6.2,3.68a28.69,28.69,0,0,0-5,8.79,27.73,27.73,0,0,0-1.86,9.45c0,4.46,1.32,6.68,4,6.68q4.55,0,10.52-7.94l.32.25q-7.19,10.53-13.67,10.53A5.86,5.86,0,0,1,286.64,43.79Z"/><path class="cls-1" d="M310.77,43.91A6.22,6.22,0,0,1,308.13,39a2,2,0,0,1,.59-1.48,1.89,1.89,0,0,1,1.36-.6c1.13,0,1.85.78,2.14,2.33a9.76,9.76,0,0,0,1.86,4.85,4.75,4.75,0,0,0,3.75,1.45,5.86,5.86,0,0,0,4.38-1.79,5.73,5.73,0,0,0,1.73-4.07q0-3-3.15-6.86L319,30.62c-2.36-2.86-3.53-5.31-3.53-7.37a8.45,8.45,0,0,1,2.77-6.52,9.13,9.13,0,0,1,6.36-2.55,10.08,10.08,0,0,1,5.83,1.73Q333,17.63,333,19.66a1.73,1.73,0,0,1-.6,1.35,2,2,0,0,1-1.41.54c-1.14,0-1.85-.76-2.15-2.27a7,7,0,0,0-1.45-3.5,3.81,3.81,0,0,0-3-1.1,5.31,5.31,0,0,0-3.68,1.39,4.81,4.81,0,0,0-1.55,3.78c0,1.89,1.24,4.34,3.72,7.37l1.95,2.39c1.94,2.44,2.9,4.73,2.9,6.87a8.71,8.71,0,0,1-3.12,6.87,10.6,10.6,0,0,1-7.15,2.71A10.37,10.37,0,0,1,310.77,43.91Z"/><path class="cls-1" d="M358.34,1.64a22.13,22.13,0,0,1,22.05,22.3,22,22,0,1,1-44,0A22.08,22.08,0,0,1,358.34,1.64Zm0,40.64a18.23,18.23,0,0,0,18.14-18.34,18.15,18.15,0,1,0-36.29,0A18.24,18.24,0,0,0,358.34,42.28Zm8.88-10.71a12.3,12.3,0,0,1-8.69,4.09,11.37,11.37,0,0,1,0-22.74,12.22,12.22,0,0,1,8.63,4.15l-2.9,3a8.66,8.66,0,0,0-5.73-2.9,7.15,7.15,0,0,0,0,14.3c2,0,4-1.2,5.86-3Z"/></svg>