<?xml version="1.0" encoding="utf-8"?>
<!-- Generator: Adobe Illustrator 26.0.3, SVG Export Plug-In . SVG Version: 6.00 Build 0)  -->
<svg version="1.1" id="Capa_1" xmlns="http://www.w3.org/2000/svg" xmlns:xlink="http://www.w3.org/1999/xlink" x="0px" y="0px"
	 viewBox="0 0 24 24" style="enable-background:new 0 0 24 24;" xml:space="preserve">
<style type="text/css">
	.st0{fill:#FFFFFF;}
</style>
<path class="st0" d="M17.7,18.3c-0.6,0-1.3-0.1-1.9-0.3c-0.5-0.2-1-0.5-1.4-1c-0.4-0.4-0.7-0.9-0.9-1.5c-0.2-0.6-0.3-1.3-0.3-1.9
	c0-0.6,0.1-1.3,0.3-1.9c0.2-0.6,0.5-1.1,0.9-1.5c0.4-0.4,0.9-0.8,1.4-1C16.4,9,17,8.9,17.7,8.9c0.7,0,1.4,0.1,2,0.4
	c0.5,0.3,1,0.7,1.4,1.2c0.4,0.5,0.6,1.1,0.8,1.7c0.2,0.6,0.2,1.3,0.2,2h-6.4c0,0.6,0.2,1.3,0.6,1.7c0.4,0.4,1,0.6,1.6,0.5
	c0.5,0,0.9-0.1,1.3-0.4c0.3-0.2,0.5-0.5,0.7-0.8h2.2c-0.2,0.9-0.8,1.7-1.6,2.3C19.5,18.1,18.6,18.3,17.7,18.3z M17.6,10.7
	c-0.3,0-0.7,0.1-1,0.2c-0.2,0.1-0.4,0.3-0.6,0.5c-0.2,0.2-0.3,0.4-0.3,0.6c-0.1,0.2-0.1,0.4-0.1,0.6h4c0-0.5-0.2-1-0.6-1.4
	C18.6,10.9,18.1,10.7,17.6,10.7z M8,18H2V5.7h5.8c0.5,0,1.1,0,1.6,0.2c0.4,0.1,0.9,0.3,1.3,0.5C11,6.6,11.3,7,11.5,7.3
	c0.2,0.5,0.3,0.9,0.3,1.4c0,0.5-0.1,1.1-0.4,1.6c-0.3,0.4-0.8,0.8-1.3,1c0.7,0.2,1.3,0.6,1.7,1.1c0.4,0.6,0.6,1.3,0.6,2
	c0,0.6-0.1,1.1-0.4,1.6c-0.2,0.4-0.6,0.8-1,1.1c-0.4,0.3-0.9,0.5-1.4,0.6C9,18,8.5,18,8,18L8,18z M4.7,12.6v3.4h2.9
	c0.3,0,0.5,0,0.8-0.1c0.2,0,0.4-0.1,0.6-0.3c0.2-0.1,0.3-0.3,0.4-0.5c0.1-0.2,0.2-0.5,0.2-0.8c0-0.5-0.1-1-0.5-1.4
	c-0.4-0.3-0.9-0.4-1.4-0.4L4.7,12.6z M4.7,7.8v2.9h2.7c0.4,0,0.8-0.1,1.2-0.3C9,10.1,9.1,9.7,9.1,9.2c0-0.2,0-0.5-0.2-0.7
	C8.9,8.4,8.7,8.2,8.5,8.1C8.4,8,8.2,7.9,7.9,7.9c-0.2,0-0.5-0.1-0.7-0.1L4.7,7.8z M20.1,7.8h-5V6.6h5V7.8L20.1,7.8z"/>
</svg>
