<?xml version="1.0" encoding="utf-8"?>
<!-- Generator: Adobe Illustrator 26.0.3, SVG Export Plug-In . SVG Version: 6.00 Build 0)  -->
<svg version="1.1" id="Capa_1" xmlns="http://www.w3.org/2000/svg" xmlns:xlink="http://www.w3.org/1999/xlink" x="0px" y="0px"
	 viewBox="0 0 24 24" style="enable-background:new 0 0 24 24;" xml:space="preserve">
<style type="text/css">
	.st0{fill:#FFFFFF;}
</style>
<path class="st0" d="M12,21c-2.5,0-2.8,0-3.7-0.1c-0.7,0-1.5-0.2-2.2-0.5c-1.2-0.5-2.2-1.4-2.6-2.6c-0.3-0.7-0.4-1.4-0.4-2.2
	C3,14.8,3,14.4,3,12c0-2.5,0-2.8,0.1-3.7c0-0.7,0.2-1.5,0.4-2.2c0.5-1.2,1.4-2.2,2.6-2.6c0.7-0.3,1.4-0.4,2.2-0.4C9.2,3,9.6,3,12,3
	c2.5,0,2.8,0,3.7,0.1c0.7,0,1.5,0.2,2.2,0.4c1.2,0.5,2.2,1.4,2.6,2.6c0.3,0.7,0.4,1.5,0.4,2.2C21,9.3,21,9.6,21,12
	c0,2.4,0,2.8-0.1,3.7c0,0.7-0.2,1.5-0.4,2.2c-0.5,1.2-1.4,2.2-2.6,2.6c-0.7,0.3-1.4,0.4-2.2,0.4C14.8,21,14.4,21,12,21z M12,4.6
	c-2.4,0-2.7,0-3.7,0.1C7.7,4.7,7.2,4.8,6.6,5C5.9,5.3,5.2,5.9,4.9,6.7C4.7,7.2,4.6,7.8,4.6,8.4c-0.1,1-0.1,1.2-0.1,3.7
	c0,2.4,0,2.7,0.1,3.7c0,0.6,0.1,1.1,0.3,1.7c0.3,0.8,0.9,1.4,1.7,1.7c0.5,0.2,1.1,0.3,1.7,0.3c1,0.1,1.2,0.1,3.7,0.1
	c2.5,0,2.7,0,3.7-0.1c0.6,0,1.1-0.1,1.7-0.3c0.8-0.3,1.4-0.9,1.7-1.7c0.2-0.5,0.3-1.1,0.3-1.7h0c0-1,0-1.2,0-3.7
	c0-2.4,0-2.7-0.1-3.7c0-0.6-0.1-1.1-0.3-1.7c-0.3-0.8-0.9-1.4-1.7-1.7c-0.5-0.2-1.1-0.3-1.7-0.3C14.7,4.6,14.4,4.6,12,4.6z M12,16.6
	c-1.9,0-3.6-1.1-4.3-2.9c-0.7-1.7-0.3-3.7,1-5c1.3-1.3,3.3-1.7,5-1s2.9,2.4,2.9,4.3C16.6,14.6,14.6,16.6,12,16.6z M12,9
	c-1.7,0-3,1.3-3,3c0,1.7,1.3,3,3,3c1.7,0,3-1.3,3-3C15,10.3,13.7,9,12,9z M16.8,8.3c-0.6,0-1.1-0.5-1.1-1.1c0-0.6,0.5-1.1,1.1-1.1
	c0.6,0,1.1,0.5,1.1,1.1c0,0.3-0.1,0.6-0.3,0.8C17.4,8.2,17.1,8.3,16.8,8.3z"/>
</svg>
