<?xml version="1.0" encoding="utf-8"?>
<!-- Generator: Adobe Illustrator 26.0.3, SVG Export Plug-In . SVG Version: 6.00 Build 0)  -->
<svg version="1.1" id="Capa_1" xmlns="http://www.w3.org/2000/svg" xmlns:xlink="http://www.w3.org/1999/xlink" x="0px" y="0px"
	 viewBox="0 0 24 24" style="enable-background:new 0 0 24 24;" xml:space="preserve">
<style type="text/css">
	.st0{fill:#FFFFFF;}
</style>
<path class="st0" d="M8.9,22c-1.7,0-3.2-1-3.7-2.6c-0.6-1.6-0.1-3.3,1.2-4.4C5.5,14.3,5,13.2,5,12s0.5-2.3,1.4-3
	c-1.3-1-1.8-2.8-1.2-4.4C5.8,3,7.3,2,8.9,2h6.1c1.7,0,3.2,1,3.7,2.6c0.6,1.6,0.1,3.3-1.2,4.4c1.3,1,1.8,2.8,1.2,4.4
	s-2.1,2.6-3.7,2.6c-0.8,0-1.5-0.2-2.2-0.6v2.8C12.9,20.2,11.1,22,8.9,22z M8.9,15.9c-1.2,0-2.1,1-2.1,2.2c0,1.2,1,2.1,2.2,2.1
	c1.2,0,2.1-1,2.1-2.2v-2.2H8.9L8.9,15.9z M15.1,9.8c-1.2,0-2.1,1-2.1,2.2c0,1.2,1,2.1,2.2,2.1s2.1-1,2.1-2.2
	C17.2,10.8,16.2,9.8,15.1,9.8L15.1,9.8z M8.9,9.8c-0.8,0-1.5,0.4-1.9,1.1c-0.4,0.7-0.4,1.5,0,2.2c0.4,0.7,1.1,1.1,1.9,1.1h2.2V9.8
	H8.9z M12.9,3.8v4.3h2.2c1.2,0,2.1-0.9,2.2-2.1v0.4V5.9c0-1.2-1-2.2-2.2-2.2H12.9z M8.9,3.8c-0.8,0-1.5,0.4-1.9,1.1
	C6.7,5.5,6.7,6.3,7.1,7c0.4,0.7,1.1,1.1,1.9,1.1h2.2V3.8H8.9z"/>
</svg>
