<?xml version="1.0" encoding="utf-8"?>
<!-- Generator: Adobe Illustrator 26.0.3, SVG Export Plug-In . SVG Version: 6.00 Build 0)  -->
<svg version="1.1" id="Capa_1" xmlns="http://www.w3.org/2000/svg" xmlns:xlink="http://www.w3.org/1999/xlink" x="0px" y="0px"
	 viewBox="0 0 24 24" style="enable-background:new 0 0 24 24;" xml:space="preserve">
<style type="text/css">
	.st0{fill:#FFFFFF;}
</style>
<path class="st0" d="M13,21H9V9h4v2c0.9-1.1,2.1-1.7,3.5-1.8c2.5,0,4.5,2,4.5,4.5V21h-4v-6.7c-0.2-1.1-1.1-1.9-2.2-1.9
	c-0.5,0-1,0.2-1.3,0.6c-0.3,0.4-0.5,0.9-0.5,1.3V21z M7,21H3V9h4V21z M5,7C3.9,7,3,6.1,3,5s0.9-2,2-2s2,0.9,2,2c0,0.5-0.2,1-0.6,1.4
	C6,6.8,5.5,7,5,7z"/>
</svg>
